# xmcd
#
# Track frame offsets: 
#        150
#        12037
#        21868
#        36360
#        47057
#        56774
#        69301
#        80864
#        102943
#        115296
#        127891
#        139273
#        151152
#        163527
#        176786
#        192143
#        207287
#        219999
#        232149
#        242002
#
# Disc length: 3363 seconds
#
# Revision: 0
# Processed by: cddbd v1.5.2PL0 Copyright (c) Steve Scherf et al.
# Submitted via: ExactAudioCopyFreeDBPlugin 1.0
#
DISCID=170d2114
DTITLE=Various Artist - The Ultimate Country Gold Collection Disc 2
DYEAR=2000
DGENRE=Country
TTITLE0=Kenny Rogers - Me and Bobby McGee
TTITLE1=Johnny Cash - Rock Island Line
TTITLE2=Glen Campbell - Rhinestone Cowboy (Live)
TTITLE3=Waylon Jennings - Dream Baby
TTITLE4=Willie Nelson - Half of a Man
TTITLE5=Freddy Fender - Almost Persuaded
TTITLE6=Patsy Cline - Let the Teardrops Fall
TTITLE7=Merle Haggard - The Bottle Let Me Down (Live)
TTITLE8=Jim Reeves - Your Old Love Letters
TTITLE9=Johnny Cash - Give My Love to Rose
TTITLE10=George Jones - Talk Back Trembling Lips
TTITLE11=Don Williams - Tulsa Time
TTITLE12=Willie Nelson - The Shelter of Your Arms
TTITLE13=Ernest Tubb - Have You Ever Been Lonely
TTITLE14=Merle Haggard - San Antonio Rose (Live)
TTITLE15=Kenny Rogers - Just Dropped In
TTITLE16=Roy Rogers - Don't Fence Me In
TTITLE17=Hank Williams - Lost Highway
TTITLE18=Glen Campbell - Dreams of the Everyday Housewife (Live)
TTITLE19=Johnny Cash - Hey Porter
EXTD=MasterSong Cat: 60000/2 Bar: 9316797600004
EXTT0=
EXTT1=
EXTT2=
EXTT3=
EXTT4=
EXTT5=
EXTT6=
EXTT7=
EXTT8=
EXTT9=
EXTT10=
EXTT11=
EXTT12=
EXTT13=
EXTT14=
EXTT15=
EXTT16=
EXTT17=
EXTT18=
EXTT19=
PLAYORDER=
